<?xml version="1.0" encoding="iso-8859-1"?>
<!-- Generator: Adobe Illustrator 16.0.0, SVG Export Plug-In . SVG Version: 6.00 Build 0)  -->
<!DOCTYPE svg PUBLIC "-//W3C//DTD SVG 1.1//EN" "http://www.w3.org/Graphics/SVG/1.1/DTD/svg11.dtd">
<svg version="1.1" xmlns="http://www.w3.org/2000/svg" xmlns:xlink="http://www.w3.org/1999/xlink" x="0px" y="0px" width="512px"
	 height="512px" viewBox="0 0 512 512" style="enable-background:new 0 0 512 512;" xml:space="preserve">
<g id="A_-_82_x2C__chat_x2C__Bubbles_x2C__comments_x2C__conversations_x2C__talks">
	<g>
		<g id="XMLID_72_">
			<g>
				<g>
					<path style="fill:#FCBF55;" d="M488.702,364.728v70.383c0,14.592-11.931,26.413-26.413,26.413h-6.622v30.496l-49.061-30.496
						H173.127c-14.536,0-26.412-11.821-26.412-26.413v-70.383c0-14.482,11.821-26.413,26.412-26.413h289.162
						C476.771,338.314,488.702,350.245,488.702,364.728z"/>
				</g>
				<g>
					<path style="fill:#4DC5AC;" d="M488.702,46.383v70.504c0,14.47-11.931,26.292-26.413,26.292h-6.622v30.496l-49.061-30.496
						H173.127c-14.536,0-26.412-11.822-26.412-26.292V46.383c0-14.471,11.821-26.402,26.412-26.402h289.162
						C476.771,19.981,488.702,31.912,488.702,46.383z"/>
				</g>
				<g>
					<path style="fill:#CCCCCA;" d="M365.285,205.616v70.382c0,14.482-11.931,26.414-26.413,26.414H105.338l-49.06,30.386v-30.386
						h-6.579c-14.591,0-26.401-11.834-26.401-26.414v-70.382c0-14.591,11.811-26.414,26.401-26.414h289.173
						C353.354,179.202,365.285,191.024,365.285,205.616z M333.454,269.923v-59.886H56.989v59.886H333.454z"/>
				</g>
				<g>
					<rect x="56.989" y="210.037" style="fill:#B5B5B4;" width="276.465" height="59.886"/>
				</g>
			</g>
			<g>
				<g>
					<path d="M455.667,177.506c-0.702,0-1.404-0.193-2.022-0.577l-48.132-29.918H173.127c-16.676,0-30.243-13.513-30.243-30.124
						V46.383c0-16.671,13.567-30.233,30.243-30.233h289.162c16.677,0,30.244,13.563,30.244,30.233v70.504
						c0,16.61-13.567,30.124-30.244,30.124h-2.791v26.665c0,1.391-0.753,2.673-1.97,3.349
						C456.949,177.346,456.308,177.506,455.667,177.506z M173.127,23.812c-12.451,0-22.581,10.125-22.581,22.571v70.504
						c0,12.385,10.13,22.461,22.581,22.461h233.479c0.716,0,1.416,0.2,2.022,0.577l43.207,26.857v-23.604
						c0-2.116,1.716-3.831,3.831-3.831h6.622c12.451,0,22.582-10.076,22.582-22.461V46.383c0-12.446-10.131-22.571-22.582-22.571
						H173.127z"/>
				</g>
				<g>
					<path d="M56.278,336.629c-0.642,0-1.284-0.16-1.864-0.484c-1.214-0.676-1.967-1.957-1.967-3.347v-26.555h-2.748
						c-16.67,0-30.232-13.568-30.232-30.245v-70.382c0-16.677,13.563-30.245,30.232-30.245h289.173
						c16.677,0,30.244,13.568,30.244,30.245v70.382c0,16.677-13.567,30.245-30.244,30.245H106.429l-48.134,29.812
						C57.679,336.437,56.979,336.629,56.278,336.629z M49.699,183.033c-12.445,0-22.57,10.131-22.57,22.583v70.382
						c0,12.452,10.125,22.583,22.57,22.583h6.579c2.116,0,3.831,1.716,3.831,3.831v23.506l43.212-26.764
						c0.605-0.375,1.305-0.573,2.017-0.573h233.534c12.451,0,22.582-10.131,22.582-22.583v-70.382
						c0-12.452-10.131-22.583-22.582-22.583H49.699z"/>
				</g>
				<g>
					<path d="M455.667,495.851c-0.702,0-1.404-0.193-2.022-0.577l-48.132-29.919H173.127c-16.676,0-30.243-13.567-30.243-30.244
						v-70.383c0-16.677,13.567-30.244,30.243-30.244h289.162c16.677,0,30.244,13.567,30.244,30.244v70.383
						c0,16.677-13.567,30.244-30.244,30.244h-2.791v26.665c0,1.391-0.753,2.672-1.97,3.349
						C456.949,495.69,456.308,495.851,455.667,495.851z M173.127,342.146c-12.451,0-22.581,10.131-22.581,22.582v70.383
						c0,12.451,10.13,22.582,22.581,22.582h233.479c0.716,0,1.416,0.199,2.022,0.577l43.207,26.857v-23.604
						c0-2.115,1.716-3.831,3.831-3.831h6.622c12.451,0,22.582-10.131,22.582-22.582v-70.383c0-12.451-10.131-22.582-22.582-22.582
						H173.127z"/>
				</g>
				<g>
					<path d="M333.454,273.754H56.989c-2.116,0-3.831-1.715-3.831-3.831v-59.886c0-2.116,1.715-3.831,3.831-3.831h276.465
						c2.115,0,3.831,1.715,3.831,3.831v59.886C337.285,272.039,335.569,273.754,333.454,273.754z M60.82,266.092h268.803v-52.224
						H60.82V266.092z"/>
				</g>
				<g>
					<path d="M308.146,48.999H187.16c-2.116,0-3.831-1.715-3.831-3.831s1.715-3.831,3.831-3.831h120.986
						c2.115,0,3.831,1.715,3.831,3.831S310.262,48.999,308.146,48.999z"/>
				</g>
				<g>
					<path d="M347.926,72.981H187.16c-2.116,0-3.831-1.715-3.831-3.831c0-2.116,1.715-3.831,3.831-3.831h160.766
						c2.115,0,3.831,1.715,3.831,3.831C351.757,71.267,350.041,72.981,347.926,72.981z"/>
				</g>
				<g>
					<path d="M439.86,97.063h-252.7c-2.116,0-3.831-1.715-3.831-3.831c0-2.116,1.715-3.831,3.831-3.831h252.7
						c2.116,0,3.832,1.715,3.832,3.831C443.692,95.348,441.977,97.063,439.86,97.063z"/>
				</g>
				<g>
					<path d="M439.86,121.155h-252.7c-2.116,0-3.831-1.715-3.831-3.831c0-2.116,1.715-3.831,3.831-3.831h252.7
						c2.116,0,3.832,1.715,3.832,3.831C443.692,119.44,441.977,121.155,439.86,121.155z"/>
				</g>
				<g>
					<path d="M308.146,368.34H187.16c-2.116,0-3.831-1.716-3.831-3.831c0-2.116,1.715-3.831,3.831-3.831h120.986
						c2.115,0,3.831,1.715,3.831,3.831C311.978,366.624,310.262,368.34,308.146,368.34z"/>
				</g>
				<g>
					<path d="M347.926,392.421H187.16c-2.116,0-3.831-1.716-3.831-3.831s1.715-3.831,3.831-3.831h160.766
						c2.115,0,3.831,1.716,3.831,3.831S350.041,392.421,347.926,392.421z"/>
				</g>
				<g>
					<path d="M439.86,416.513h-252.7c-2.116,0-3.831-1.716-3.831-3.831s1.715-3.831,3.831-3.831h252.7
						c2.116,0,3.832,1.716,3.832,3.831S441.977,416.513,439.86,416.513z"/>
				</g>
				<g>
					<path d="M439.86,440.485h-252.7c-2.116,0-3.831-1.716-3.831-3.831s1.715-3.831,3.831-3.831h252.7
						c2.116,0,3.832,1.716,3.832,3.831S441.977,440.485,439.86,440.485z"/>
				</g>
			</g>
		</g>
	</g>
</g>
<g id="Layer_1">
</g>
</svg>
