<?xml version="1.0" encoding="UTF-8"?>
<!DOCTYPE svg PUBLIC "-//W3C//DTD SVG 1.1//EN" "http://www.w3.org/Graphics/SVG/1.1/DTD/svg11.dtd">
<!-- Creator: CorelDRAW -->
<svg xmlns="http://www.w3.org/2000/svg" xml:space="preserve" width="1.70666in" height="1.70666in" version="1.1" style="shape-rendering:geometricPrecision; text-rendering:geometricPrecision; image-rendering:optimizeQuality; fill-rule:evenodd; clip-rule:evenodd"
viewBox="0 0 1706.66 1706.66"
 xmlns:xlink="http://www.w3.org/1999/xlink"
 xmlns:xodm="http://www.corel.com/coreldraw/odm/2003">
 <defs>
  <style type="text/css">
   <![CDATA[
    .fil3 {fill:#333333}
    .fil2 {fill:#CED07D}
    .fil0 {fill:#FE6F69}
    .fil1 {fill:#FFCB5B}
   ]]>
  </style>
 </defs>
 <g id="Layer_x0020_1">
  <metadata id="CorelCorpID_0Corel-Layer"/>
  <polygon class="fil0" points="1160.08,233.44 1160.08,484.17 1437.91,484.17 "/>
  <path class="fil1" d="M1120.07 504.3l0 -295.69 -684.03 -0 0 1276.11 0 165.28 1034.03 0 0 -1125.69 -330 0c-10.97,0 -20,-8.89 -20,-20zm-542.92 117.5l477.78 0c26.33,0 26.34,40 0,40l-477.78 0c-26.36,0 -26.37,-40 0,-40zm-14.86 177.78l781.53 0.01c26.33,0 26.34,40 0,40l-781.53 0c-26.36,0 -26.37,-40 0,-40zm0 177.78l781.53 0c26.3,0 26.31,40 0,40l-781.53 0c-26.33,0 -26.33,-40 0,-40zm0 177.78l781.53 0c26.3,0 26.3,40 0,40l-781.53 0c-26.33,0 -26.33,-40 0,-40zm0 177.78l781.53 0c26.3,0 26.3,40 0,40l-781.53 0c-26.33,0 -26.33,-40 0,-40z"/>
  <path class="fil2" d="M416.05 168.47l644.57 0 -160.96 -145.14 -696.53 0 0 1441.52 192.91 0 0 -1276.39c0,-11.11 8.89,-20 20,-20z"/>
  <path class="fil3" d="M1071.6 678.47l-477.78 0c-26.36,0 -26.37,-40 0,-40l477.78 0c26.33,0 26.34,40 0,40z"/>
  <path class="fil3" d="M1360.49 856.25l-781.53 0c-26.36,0 -26.37,-40 0,-40l781.53 0.01c26.33,0 26.34,40 0,40z"/>
  <path class="fil3" d="M1360.49 1034.03l-781.53 0c-26.33,0 -26.33,-40 0,-40l781.53 0c26.3,0 26.31,40 0,40z"/>
  <path class="fil3" d="M1360.49 1211.8l-781.53 0c-26.33,0 -26.33,-40 0,-40l781.53 0c26.3,0 26.3,40 0,40z"/>
  <path class="fil3" d="M1360.49 1389.58l-781.53 0c-26.33,0 -26.33,-40 0,-40l781.53 0c26.3,0 26.3,40 0,40z"/>
  <path class="fil3" d="M1506.74 1706.66l-1074.03 0c-11.11,0 -20,-9.02 -20,-20l0 -1481.52c0,-11.11 8.89,-20 20,-20l724.3 0c5,0 9.72,1.8 13.33,5.14l349.86 315.83c4.17,3.75 6.67,9.17 6.67,14.86l0 1165.7c-0.14,10.97 -9.03,20 -20.14,20zm-1054.03 -40l1034.03 0 0 -1136.8 -337.5 -304.58 -696.52 -0 0 1441.39z"/>
  <path class="fil3" d="M1506.74 540.97l-350 0c-10.97,0 -20,-8.89 -20,-20l0 -315.83c0,-26.33 40,-26.33 40,0l0 295.7 330 0c26.36,0 26.32,40.14 0,40.14z"/>
  <path class="fil3" d="M432.71 1521.53l-232.92 0c-11.11,0 -20,-9.03 -20,-20l0 -1481.53c0,-11.11 8.89,-20 20,-20l724.3 0c5,0 9.72,1.8 13.33,5.14l205.14 185.14c13.38,12.12 5.11,34.86 -13.33,34.86l-676.53 -0 0 1276.25c0,11.11 -9.03,20.14 -20,20.14zm-212.91 -40l192.92 0 0 -1276.39c0,-11.11 8.89,-20 20,-20l644.57 0 -160.96 -145.14 -696.53 0 0 1441.52z"/>
 </g>
</svg>
