<svg width="600" height="117" viewBox="0 0 600 117" fill="none" xmlns="http://www.w3.org/2000/svg">
<path d="M152.629 74.6895C152.629 73.2246 152.401 71.9225 151.945 70.7832C151.522 69.6439 150.757 68.6022 149.65 67.6582C148.544 66.7142 146.981 65.8027 144.963 64.9238C142.977 64.0124 140.438 63.0846 137.346 62.1406C133.96 61.099 130.835 59.9434 127.971 58.6738C125.139 57.3717 122.665 55.8743 120.549 54.1816C118.433 52.4564 116.789 50.487 115.617 48.2734C114.445 46.0273 113.859 43.4395 113.859 40.5098C113.859 37.6126 114.462 34.9759 115.666 32.5996C116.903 30.2233 118.645 28.1725 120.891 26.4473C123.169 24.6895 125.855 23.3385 128.947 22.3945C132.04 21.418 135.458 20.9297 139.201 20.9297C144.475 20.9297 149.016 21.9062 152.824 23.8594C156.665 25.8125 159.611 28.4329 161.662 31.7207C163.745 35.0085 164.787 38.638 164.787 42.6094H152.629C152.629 40.2656 152.124 38.1986 151.115 36.4082C150.139 34.5853 148.641 33.153 146.623 32.1113C144.637 31.0697 142.115 30.5488 139.055 30.5488C136.158 30.5488 133.749 30.9883 131.828 31.8672C129.908 32.7461 128.475 33.9342 127.531 35.4316C126.587 36.929 126.115 38.6217 126.115 40.5098C126.115 41.8444 126.424 43.0651 127.043 44.1719C127.661 45.2461 128.605 46.2552 129.875 47.1992C131.145 48.1107 132.74 48.9733 134.66 49.7871C136.581 50.6009 138.843 51.3822 141.447 52.1309C145.386 53.3027 148.82 54.6048 151.75 56.0371C154.68 57.4368 157.121 59.0319 159.074 60.8223C161.027 62.6126 162.492 64.6471 163.469 66.9258C164.445 69.1719 164.934 71.7272 164.934 74.5918C164.934 77.5866 164.331 80.2884 163.127 82.6973C161.923 85.0736 160.197 87.1081 157.951 88.8008C155.738 90.4609 153.068 91.7467 149.943 92.6582C146.851 93.5371 143.4 93.9766 139.592 93.9766C136.174 93.9766 132.805 93.5208 129.484 92.6094C126.197 91.6979 123.202 90.3145 120.5 88.459C117.798 86.571 115.65 84.2272 114.055 81.4277C112.46 78.5957 111.662 75.2917 111.662 71.5156H123.918C123.918 73.8268 124.309 75.7962 125.09 77.4238C125.904 79.0514 127.027 80.3861 128.459 81.4277C129.891 82.4368 131.551 83.1855 133.439 83.6738C135.36 84.1621 137.411 84.4062 139.592 84.4062C142.456 84.4062 144.849 83.9993 146.77 83.1855C148.723 82.3717 150.188 81.2324 151.164 79.7676C152.141 78.3027 152.629 76.61 152.629 74.6895ZM206.389 80.5488V40.168H218.205V93H207.072L206.389 80.5488ZM208.049 69.5625L212.004 69.4648C212.004 73.013 211.613 76.2845 210.832 79.2793C210.051 82.2415 208.846 84.8294 207.219 87.043C205.591 89.224 203.508 90.9329 200.969 92.1699C198.43 93.3743 195.386 93.9766 191.838 93.9766C189.266 93.9766 186.906 93.6022 184.758 92.8535C182.609 92.1048 180.754 90.9492 179.191 89.3867C177.661 87.8242 176.473 85.7897 175.627 83.2832C174.781 80.7767 174.357 77.7819 174.357 74.2988V40.168H186.125V74.3965C186.125 76.3171 186.353 77.9284 186.809 79.2305C187.264 80.5 187.883 81.5254 188.664 82.3066C189.445 83.0879 190.357 83.6413 191.398 83.9668C192.44 84.2923 193.547 84.4551 194.719 84.4551C198.072 84.4551 200.708 83.804 202.629 82.502C204.582 81.1673 205.965 79.377 206.779 77.1309C207.626 74.8848 208.049 72.362 208.049 69.5625ZM242.863 40.168V93H231.047V40.168H242.863ZM230.266 26.3008C230.266 24.5104 230.852 23.0293 232.023 21.8574C233.228 20.653 234.888 20.0508 237.004 20.0508C239.087 20.0508 240.731 20.653 241.936 21.8574C243.14 23.0293 243.742 24.5104 243.742 26.3008C243.742 28.0586 243.14 29.5234 241.936 30.6953C240.731 31.8672 239.087 32.4531 237.004 32.4531C234.888 32.4531 233.228 31.8672 232.023 30.6953C230.852 29.5234 230.266 28.0586 230.266 26.3008ZM285.393 78.6934C285.393 77.5215 285.1 76.4635 284.514 75.5195C283.928 74.543 282.805 73.6641 281.145 72.8828C279.517 72.1016 277.108 71.3854 273.918 70.7344C271.118 70.1159 268.547 69.3835 266.203 68.5371C263.892 67.6582 261.906 66.6003 260.246 65.3633C258.586 64.1263 257.3 62.6615 256.389 60.9688C255.477 59.276 255.021 57.3229 255.021 55.1094C255.021 52.9609 255.493 50.9264 256.438 49.0059C257.382 47.0853 258.732 45.3926 260.49 43.9277C262.248 42.4629 264.38 41.3073 266.887 40.4609C269.426 39.6146 272.258 39.1914 275.383 39.1914C279.81 39.1914 283.602 39.9401 286.76 41.4375C289.95 42.9023 292.391 44.9043 294.084 47.4434C295.777 49.9499 296.623 52.7819 296.623 55.9395H284.855C284.855 54.5397 284.497 53.2376 283.781 52.0332C283.098 50.7962 282.056 49.8034 280.656 49.0547C279.257 48.2734 277.499 47.8828 275.383 47.8828C273.365 47.8828 271.688 48.2083 270.354 48.8594C269.051 49.4779 268.075 50.2917 267.424 51.3008C266.805 52.3099 266.496 53.4167 266.496 54.6211C266.496 55.5 266.659 56.2975 266.984 57.0137C267.342 57.6973 267.928 58.332 268.742 58.918C269.556 59.4714 270.663 59.9922 272.062 60.4805C273.495 60.9688 275.285 61.4408 277.434 61.8965C281.47 62.7428 284.937 63.8333 287.834 65.168C290.764 66.4701 293.01 68.1628 294.572 70.2461C296.135 72.2969 296.916 74.901 296.916 78.0586C296.916 80.4023 296.411 82.5508 295.402 84.5039C294.426 86.4245 292.993 88.1009 291.105 89.5332C289.217 90.9329 286.955 92.0234 284.318 92.8047C281.714 93.5859 278.785 93.9766 275.529 93.9766C270.744 93.9766 266.691 93.1302 263.371 91.4375C260.051 89.7122 257.528 87.515 255.803 84.8457C254.11 82.1439 253.264 79.3444 253.264 76.4473H264.641C264.771 78.6283 265.373 80.3698 266.447 81.6719C267.554 82.9414 268.921 83.8691 270.549 84.4551C272.209 85.0085 273.918 85.2852 275.676 85.2852C277.792 85.2852 279.566 85.0085 280.998 84.4551C282.43 83.8691 283.521 83.0879 284.27 82.1113C285.018 81.1022 285.393 79.9629 285.393 78.6934ZM336.857 78.6934C336.857 77.5215 336.564 76.4635 335.979 75.5195C335.393 74.543 334.27 73.6641 332.609 72.8828C330.982 72.1016 328.573 71.3854 325.383 70.7344C322.583 70.1159 320.012 69.3835 317.668 68.5371C315.357 67.6582 313.371 66.6003 311.711 65.3633C310.051 64.1263 308.765 62.6615 307.854 60.9688C306.942 59.276 306.486 57.3229 306.486 55.1094C306.486 52.9609 306.958 50.9264 307.902 49.0059C308.846 47.0853 310.197 45.3926 311.955 43.9277C313.713 42.4629 315.845 41.3073 318.352 40.4609C320.891 39.6146 323.723 39.1914 326.848 39.1914C331.275 39.1914 335.067 39.9401 338.225 41.4375C341.415 42.9023 343.856 44.9043 345.549 47.4434C347.242 49.9499 348.088 52.7819 348.088 55.9395H336.32C336.32 54.5397 335.962 53.2376 335.246 52.0332C334.562 50.7962 333.521 49.8034 332.121 49.0547C330.721 48.2734 328.964 47.8828 326.848 47.8828C324.829 47.8828 323.153 48.2083 321.818 48.8594C320.516 49.4779 319.54 50.2917 318.889 51.3008C318.27 52.3099 317.961 53.4167 317.961 54.6211C317.961 55.5 318.124 56.2975 318.449 57.0137C318.807 57.6973 319.393 58.332 320.207 58.918C321.021 59.4714 322.128 59.9922 323.527 60.4805C324.96 60.9688 326.75 61.4408 328.898 61.8965C332.935 62.7428 336.402 63.8333 339.299 65.168C342.229 66.4701 344.475 68.1628 346.037 70.2461C347.6 72.2969 348.381 74.901 348.381 78.0586C348.381 80.4023 347.876 82.5508 346.867 84.5039C345.891 86.4245 344.458 88.1009 342.57 89.5332C340.682 90.9329 338.42 92.0234 335.783 92.8047C333.179 93.5859 330.249 93.9766 326.994 93.9766C322.209 93.9766 318.156 93.1302 314.836 91.4375C311.516 89.7122 308.993 87.515 307.268 84.8457C305.575 82.1439 304.729 79.3444 304.729 76.4473H316.105C316.236 78.6283 316.838 80.3698 317.912 81.6719C319.019 82.9414 320.386 83.8691 322.014 84.4551C323.674 85.0085 325.383 85.2852 327.141 85.2852C329.257 85.2852 331.031 85.0085 332.463 84.4551C333.895 83.8691 334.986 83.0879 335.734 82.1113C336.483 81.1022 336.857 79.9629 336.857 78.6934ZM381.975 93.9766C378.068 93.9766 374.536 93.3418 371.379 92.0723C368.254 90.7702 365.585 88.9635 363.371 86.6523C361.19 84.3411 359.514 81.623 358.342 78.498C357.17 75.373 356.584 72.0039 356.584 68.3906V66.4375C356.584 62.3034 357.186 58.5599 358.391 55.207C359.595 51.8542 361.271 48.9896 363.42 46.6133C365.568 44.2044 368.107 42.3652 371.037 41.0957C373.967 39.8262 377.141 39.1914 380.559 39.1914C384.335 39.1914 387.639 39.8262 390.471 41.0957C393.303 42.3652 395.646 44.1556 397.502 46.4668C399.39 48.7454 400.79 51.4635 401.701 54.6211C402.645 57.7786 403.117 61.2617 403.117 65.0703V70.0996H362.297V61.6523H391.496V60.7246C391.431 58.6087 391.008 56.623 390.227 54.7676C389.478 52.9121 388.322 51.4147 386.76 50.2754C385.197 49.1361 383.114 48.5664 380.51 48.5664C378.557 48.5664 376.815 48.9896 375.285 49.8359C373.788 50.6497 372.535 51.8379 371.525 53.4004C370.516 54.9629 369.735 56.8509 369.182 59.0645C368.661 61.2454 368.4 63.7031 368.4 66.4375V68.3906C368.4 70.7018 368.71 72.8503 369.328 74.8359C369.979 76.7891 370.923 78.498 372.16 79.9629C373.397 81.4277 374.895 82.5833 376.652 83.4297C378.41 84.2435 380.412 84.6504 382.658 84.6504C385.49 84.6504 388.013 84.0807 390.227 82.9414C392.44 81.8021 394.361 80.1908 395.988 78.1074L402.189 84.1133C401.05 85.7734 399.569 87.3685 397.746 88.8984C395.923 90.3958 393.693 91.6165 391.057 92.5605C388.452 93.5046 385.425 93.9766 381.975 93.9766ZM468.059 56.6719V83.8203C467.049 85.1549 465.471 86.6198 463.322 88.2148C461.206 89.7773 458.391 91.1283 454.875 92.2676C451.359 93.4069 446.981 93.9766 441.74 93.9766C437.281 93.9766 433.195 93.2279 429.484 91.7305C425.773 90.2005 422.567 87.9707 419.865 85.041C417.196 82.1113 415.129 78.5469 413.664 74.3477C412.199 70.1159 411.467 65.2982 411.467 59.8945V54.9629C411.467 49.5918 412.134 44.8066 413.469 40.6074C414.836 36.3757 416.789 32.7949 419.328 29.8652C421.867 26.9355 424.927 24.722 428.508 23.2246C432.121 21.6947 436.206 20.9297 440.764 20.9297C446.59 20.9297 451.408 21.9062 455.217 23.8594C459.058 25.7799 462.02 28.4492 464.104 31.8672C466.187 35.2852 467.505 39.1914 468.059 43.5859H456.047C455.656 41.112 454.891 38.8984 453.752 36.9453C452.645 34.9922 451.05 33.4622 448.967 32.3555C446.916 31.2161 444.247 30.6465 440.959 30.6465C438.127 30.6465 435.637 31.1836 433.488 32.2578C431.34 33.332 429.549 34.9108 428.117 36.9941C426.717 39.0775 425.66 41.6165 424.943 44.6113C424.227 47.6061 423.869 51.0241 423.869 54.8652V59.8945C423.869 63.8008 424.276 67.2676 425.09 70.2949C425.936 73.3223 427.141 75.8776 428.703 77.9609C430.298 80.0443 432.235 81.623 434.514 82.6973C436.792 83.7389 439.364 84.2598 442.229 84.2598C445.028 84.2598 447.323 84.0319 449.113 83.5762C450.904 83.0879 452.32 82.5182 453.361 81.8672C454.436 81.1836 455.266 80.5326 455.852 79.9141V65.8027H441.057V56.6719H468.059ZM508.635 66.4863H490.129V56.7695H508.635C511.857 56.7695 514.462 56.2487 516.447 55.207C518.433 54.1654 519.882 52.7331 520.793 50.9102C521.737 49.0547 522.209 46.9388 522.209 44.5625C522.209 42.3164 521.737 40.2168 520.793 38.2637C519.882 36.278 518.433 34.6829 516.447 33.4785C514.462 32.2741 511.857 31.6719 508.635 31.6719H493.889V93H481.633V21.9062H508.635C514.136 21.9062 518.807 22.8828 522.648 24.8359C526.522 26.7565 529.468 29.4258 531.486 32.8438C533.505 36.2292 534.514 40.1029 534.514 44.4648C534.514 49.0547 533.505 52.9935 531.486 56.2812C529.468 59.569 526.522 62.0918 522.648 63.8496C518.807 65.6074 514.136 66.4863 508.635 66.4863ZM574.748 21.9062V93H562.59V21.9062H574.748ZM597.062 21.9062V31.6719H540.471V21.9062H597.062Z" fill="#0068FF"/>
<rect x="53.851" y="59.4409" width="48.1491" height="15.205" rx="7.60248" fill="#0068FF"/>
<rect x="53.851" y="80.9814" width="29.7764" height="15.205" rx="7.60248" fill="#0068FF"/>
<rect x="47.5155" y="59.4409" width="48.1491" height="15.205" rx="7.60248" transform="rotate(90 47.5155 59.4409)" fill="#0068FF"/>
<rect x="25.9752" y="59.4409" width="29.7764" height="15.205" rx="7.60248" transform="rotate(90 25.9752 59.4409)" fill="#0068FF"/>
<rect x="55.118" y="52.4722" width="48.1491" height="15.205" rx="7.60248" transform="rotate(-90 55.118 52.4722)" fill="#10C800"/>
<rect x="76.6583" y="52.4722" width="29.7764" height="15.205" rx="7.60248" transform="rotate(-90 76.6583 52.4722)" fill="#10C800"/>
<rect x="48.149" y="51.8386" width="48.1491" height="15.205" rx="7.60248" transform="rotate(-180 48.149 51.8386)" fill="#10C800"/>
<rect x="48.149" y="30.2981" width="29.7764" height="15.205" rx="7.60248" transform="rotate(-180 48.149 30.2981)" fill="#10C800"/>
</svg>
