<?xml version="1.0" encoding="UTF-8" standalone="no"?> <svg width="512" height="512" viewBox="0 0 512 512" fill="none" xmlns="http://www.w3.org/2000/svg">
<path d="M24 281.077C24 209.74 93.4 151.91 179 151.91C264.6 151.91 334 209.74 334 281.077C334 352.414 264.6 410.244 179 410.244C162.898 410.265 146.862 408.165 131.308 404V448L58.44 362.265H58.454C36.911 340.081 24 311.838 24 281.077Z" fill="#92D1F7"/>
<path d="M256 439.858C254.114 439.859 252.288 439.194 250.845 437.98C249.402 436.766 248.434 435.081 248.112 433.223C247.79 431.365 248.136 429.452 249.087 427.824C250.038 426.195 251.533 424.955 253.31 424.322C272.117 417.707 289.43 407.436 304.25 394.1C305.02 393.364 305.929 392.789 306.924 392.409C307.919 392.029 308.98 391.852 310.045 391.888C311.109 391.923 312.156 392.171 313.124 392.616C314.091 393.062 314.96 393.696 315.679 394.482C316.398 395.268 316.953 396.189 317.312 397.192C317.67 398.195 317.824 399.26 317.766 400.323C317.707 401.387 317.437 402.428 316.97 403.386C316.504 404.343 315.851 405.198 315.05 405.9C298.655 420.672 279.499 432.054 258.686 439.39C257.824 439.699 256.916 439.857 256 439.858Z" fill="#EAE9E4"/>
<path d="M215.99 449.068C213.946 449.066 211.981 448.282 210.497 446.877C209.013 445.472 208.123 443.552 208.009 441.512C207.896 439.471 208.568 437.465 209.887 435.904C211.207 434.343 213.073 433.346 215.104 433.118C217.647 432.832 220.221 432.483 222.753 432.084C224.849 431.753 226.99 432.269 228.706 433.517C230.422 434.765 231.572 436.644 231.903 438.74C232.233 440.835 231.718 442.977 230.47 444.693C229.222 446.409 227.343 447.558 225.247 447.889C222.482 448.325 219.673 448.705 216.896 449.018C216.595 449.052 216.293 449.068 215.99 449.068V449.068Z" fill="#EAE9E4"/>
<path d="M488 195.628C488 124.291 418.6 66.462 333 66.462C247.4 66.462 178 124.291 178 195.628C178 266.965 247.4 324.8 333 324.8C349.102 324.822 365.137 322.724 380.692 318.56V362.56L453.56 276.825H453.546C475.089 254.633 488 226.389 488 195.628Z" fill="#FFC864"/>
<path d="M200 360H192C189.879 359.998 187.846 359.154 186.346 357.654C184.846 356.154 184.002 354.121 184 352C184.004 347.03 182.842 342.128 180.608 337.688C182.851 332.061 184.002 326.058 184 320V288C184 275.27 178.943 263.061 169.941 254.059C160.939 245.057 148.73 240 136 240C123.27 240 111.061 245.057 102.059 254.059C93.0571 263.061 88 275.27 88 288V320C87.9953 329.298 90.6924 338.397 95.7634 346.19C100.834 353.983 108.061 360.135 116.563 363.897C125.066 367.66 134.479 368.87 143.657 367.382C152.835 365.893 161.382 361.77 168.26 355.513C169.109 361.204 171.972 366.402 176.329 370.161C180.685 373.921 186.246 375.992 192 376H200C202.122 376 204.157 375.157 205.657 373.657C207.157 372.157 208 370.122 208 368C208 365.878 207.157 363.843 205.657 362.343C204.157 360.843 202.122 360 200 360ZM104 320V288C104 279.513 107.371 271.374 113.373 265.373C119.374 259.371 127.513 256 136 256C144.487 256 152.626 259.371 158.627 265.373C164.629 271.374 168 279.513 168 288V320C167.997 321.386 167.904 322.771 167.723 324.145C163.163 321.565 158.04 320.145 152.803 320.011C147.566 319.876 142.376 321.03 137.689 323.372C133.003 325.714 128.964 329.171 125.928 333.441C122.892 337.71 120.951 342.66 120.277 347.855C115.341 345.068 111.233 341.021 108.374 336.128C105.514 331.234 104.005 325.668 104 320V320ZM136 352C135.995 349.029 136.818 346.116 138.377 343.588C139.936 341.059 142.17 339.016 144.827 337.687C147.484 336.358 150.459 335.797 153.417 336.066C156.376 336.335 159.201 337.424 161.574 339.211C158.596 343.182 154.735 346.404 150.297 348.624C145.858 350.844 140.963 352 136 352V352Z" fill="#007AF6"/>
<path d="M391.353 244.849L343.353 132.849C342.736 131.41 341.711 130.184 340.404 129.322C339.097 128.46 337.566 128.001 336 128.001C334.435 128.001 332.903 128.46 331.596 129.322C330.289 130.184 329.264 131.41 328.647 132.849L280.647 244.849C280.217 245.817 279.984 246.861 279.961 247.92C279.938 248.979 280.125 250.033 280.512 251.019C280.9 252.005 281.479 252.904 282.216 253.665C282.954 254.425 283.835 255.031 284.809 255.449C285.782 255.866 286.829 256.085 287.889 256.095C288.948 256.104 289.999 255.903 290.98 255.503C291.961 255.103 292.852 254.512 293.603 253.765C294.354 253.017 294.949 252.128 295.353 251.149L313.846 208H358.154L376.647 251.151C377.051 252.13 377.646 253.019 378.397 253.767C379.148 254.514 380.04 255.105 381.021 255.505C382.001 255.905 383.052 256.106 384.111 256.097C385.171 256.087 386.218 255.868 387.191 255.451C388.165 255.033 389.046 254.427 389.784 253.667C390.521 252.906 391.101 252.007 391.488 251.021C391.875 250.035 392.062 248.981 392.039 247.922C392.016 246.863 391.783 245.819 391.353 244.851V244.849ZM320.7 192L336 156.309L351.3 192H320.7Z" fill="#EE9D0D"/>
<path d="M256 439.858C256.917 439.858 257.827 439.7 258.69 439.391C279.503 432.055 298.659 420.673 315.054 405.901C315.855 405.199 316.508 404.344 316.974 403.387C317.441 402.429 317.711 401.388 317.77 400.324C317.828 399.261 317.674 398.196 317.315 397.193C316.957 396.19 316.402 395.269 315.683 394.483C314.964 393.697 314.095 393.063 313.128 392.617C312.16 392.172 311.113 391.924 310.049 391.889C308.984 391.853 307.923 392.03 306.928 392.41C305.933 392.79 305.024 393.365 304.254 394.101C289.434 407.437 272.121 417.709 253.314 424.324C251.539 424.958 250.045 426.198 249.095 427.826C248.145 429.453 247.8 431.364 248.121 433.221C248.442 435.078 249.409 436.762 250.85 437.976C252.292 439.191 254.115 439.857 256 439.858V439.858Z" fill="black"/>
<path d="M215.99 449.068C216.293 449.068 216.595 449.052 216.896 449.018C219.673 448.705 222.482 448.325 225.247 447.889C227.343 447.558 229.222 446.409 230.47 444.693C231.718 442.977 232.233 440.835 231.903 438.74C231.572 436.644 230.422 434.765 228.706 433.517C226.99 432.269 224.849 431.753 222.753 432.084C220.221 432.484 217.647 432.832 215.104 433.118C213.073 433.346 211.207 434.343 209.887 435.904C208.568 437.465 207.896 439.471 208.009 441.512C208.123 443.552 209.013 445.472 210.497 446.877C211.981 448.282 213.946 449.066 215.99 449.068Z" fill="black"/>
<path d="M447.723 98.148C417.013 72.556 376.27 58.461 333 58.461C289.73 58.461 248.987 72.561 218.277 98.148C202.346 111.424 190.088 126.976 181.905 143.941C180.935 143.927 179.964 143.91 179 143.91C135.73 143.91 94.987 158 64.277 183.6C33.145 209.54 16 244.159 16 281.077C16 312.51 28.929 343.196 52.413 367.527L125.213 453.181C126.273 454.43 127.691 455.324 129.276 455.741C130.86 456.159 132.534 456.079 134.072 455.514C135.61 454.949 136.937 453.925 137.875 452.582C138.812 451.238 139.314 449.638 139.313 448V414.144C152.366 416.88 165.668 418.254 179.005 418.244C212.75 418.244 245.122 409.655 272.623 393.407C298.471 378.135 318.231 357.223 330.031 332.765C331.022 332.779 332.012 332.795 333.005 332.795C346.342 332.805 359.644 331.431 372.697 328.695V362.551C372.696 364.189 373.198 365.789 374.135 367.133C375.073 368.476 376.4 369.5 377.938 370.065C379.476 370.63 381.15 370.71 382.734 370.292C384.319 369.875 385.737 368.981 386.797 367.732L459.597 282.075C483.075 257.743 496 227.062 496 195.628C496 158.71 478.855 124.091 447.723 98.148ZM179 402.244C163.6 402.266 148.264 400.26 133.387 396.278C132.202 395.959 130.959 395.917 129.754 396.155C128.55 396.394 127.417 396.906 126.443 397.653C125.468 398.399 124.679 399.36 124.135 400.461C123.591 401.561 123.308 402.772 123.308 404V426.231L64.808 357.402C64.6167 357.153 64.411 356.915 64.192 356.689C43.132 335 32 308.857 32 281.077C32 215.22 96.074 161.469 175.536 159.946C171.866 171.484 169.999 183.52 170 195.628C170 232.546 187.145 267.166 218.277 293.108C244.095 314.624 277.005 328.008 312.545 331.729C288.717 374.279 236.478 402.244 179 402.244ZM447.807 271.244C447.587 271.471 447.381 271.71 447.189 271.961L388.689 340.787V318.555C388.689 317.327 388.406 316.116 387.863 315.014C387.32 313.913 386.53 312.952 385.555 312.205C384.581 311.458 383.447 310.946 382.243 310.707C381.038 310.469 379.795 310.511 378.609 310.83C363.734 314.813 348.399 316.82 333 316.8C251.944 316.8 186 262.445 186 195.633C186 128.821 251.944 74.461 333 74.461C414.056 74.461 480 128.817 480 195.628C480 223.408 468.868 249.555 447.807 271.243V271.244Z" fill="black"/>
<path d="M200 360H192C189.879 359.998 187.846 359.154 186.346 357.654C184.846 356.154 184.002 354.121 184 352C184.004 347.03 182.842 342.128 180.608 337.688C182.851 332.061 184.002 326.058 184 320V288C184 275.27 178.943 263.061 169.941 254.059C160.939 245.057 148.73 240 136 240C123.27 240 111.061 245.057 102.059 254.059C93.0571 263.061 88 275.27 88 288V320C87.9953 329.298 90.6924 338.397 95.7634 346.19C100.834 353.983 108.061 360.135 116.563 363.897C125.066 367.66 134.479 368.87 143.657 367.382C152.835 365.893 161.382 361.77 168.26 355.513C169.109 361.204 171.972 366.402 176.329 370.161C180.685 373.921 186.246 375.992 192 376H200C202.122 376 204.157 375.157 205.657 373.657C207.157 372.157 208 370.122 208 368C208 365.878 207.157 363.843 205.657 362.343C204.157 360.843 202.122 360 200 360ZM104 320V288C104 279.513 107.371 271.374 113.373 265.373C119.374 259.371 127.513 256 136 256C144.487 256 152.626 259.371 158.627 265.373C164.629 271.374 168 279.513 168 288V320C167.997 321.386 167.904 322.771 167.723 324.145C163.163 321.565 158.04 320.145 152.803 320.011C147.566 319.876 142.376 321.03 137.689 323.372C133.003 325.714 128.964 329.171 125.928 333.441C122.892 337.71 120.951 342.66 120.277 347.855C115.341 345.068 111.233 341.021 108.374 336.128C105.514 331.234 104.005 325.668 104 320V320ZM136 352C135.995 349.029 136.818 346.116 138.377 343.588C139.936 341.059 142.17 339.016 144.827 337.687C147.484 336.358 150.459 335.797 153.417 336.066C156.376 336.335 159.201 337.424 161.574 339.211C158.596 343.182 154.735 346.404 150.297 348.624C145.858 350.844 140.963 352 136 352V352Z" fill="black"/>
<path d="M343.353 132.849C342.736 131.41 341.711 130.184 340.404 129.322C339.097 128.46 337.566 128.001 336 128.001C334.435 128.001 332.903 128.46 331.596 129.322C330.289 130.184 329.264 131.41 328.647 132.849L280.647 244.849C280.217 245.817 279.984 246.861 279.961 247.92C279.938 248.979 280.125 250.033 280.512 251.019C280.9 252.005 281.479 252.904 282.216 253.665C282.954 254.425 283.835 255.031 284.809 255.449C285.782 255.866 286.829 256.085 287.889 256.095C288.948 256.104 289.999 255.903 290.98 255.503C291.961 255.103 292.852 254.512 293.603 253.765C294.354 253.017 294.949 252.128 295.353 251.149L313.846 208H358.154L376.647 251.151C377.051 252.13 377.646 253.019 378.397 253.767C379.148 254.514 380.04 255.105 381.021 255.505C382.001 255.905 383.052 256.106 384.111 256.097C385.171 256.087 386.218 255.868 387.191 255.451C388.165 255.033 389.046 254.427 389.784 253.667C390.521 252.906 391.101 252.007 391.488 251.021C391.875 250.035 392.062 248.981 392.039 247.922C392.016 246.863 391.783 245.819 391.353 244.851L343.353 132.849ZM320.7 192L336 156.309L351.3 192H320.7Z" fill="black"/>
</svg>
