<?xml version="1.0" encoding="UTF-8"?>
<!DOCTYPE svg PUBLIC "-//W3C//DTD SVG 1.1//EN" "http://www.w3.org/Graphics/SVG/1.1/DTD/svg11.dtd">
<!-- Creator: CorelDRAW -->
<svg xmlns="http://www.w3.org/2000/svg" xml:space="preserve" width="1.70666in" height="1.70666in" version="1.1" style="shape-rendering:geometricPrecision; text-rendering:geometricPrecision; image-rendering:optimizeQuality; fill-rule:evenodd; clip-rule:evenodd"
viewBox="0 0 1707 1707"
 xmlns:xlink="http://www.w3.org/1999/xlink">
 <defs>
  <style type="text/css">
   <![CDATA[
    .fil0 {fill:#333333}
    .fil2 {fill:#F3A766}
    .fil1 {fill:#FFE600}
   ]]>
  </style>
 </defs>
 <g id="Layer_x0020_1">
  <metadata id="CorelCorpID_0Corel-Layer"/>
  <path class="fil0" d="M830 1069c-42,-5 -81,-22 -112,-47l-321 320c63,90 -2,213 -110,213 -119,0 -180,-146 -95,-231 46,-46 119,-52 172,-15l321 -320c-26,-31 -42,-70 -47,-112l-254 0c-11,95 -93,169 -191,169 -106,0 -193,-86 -193,-193 0,-106 87,-192 193,-192 98,0 180,74 191,169l254 0c5,-42 21,-81 47,-112l-321 -321c-88,63 -212,-1 -212,-110 0,-120 146,-180 230,-95 47,46 53,119 15,172l321 321c31,-26 70,-42 112,-47l0 -254c-95,-11 -169,-93 -169,-191 0,-106 86,-193 192,-193 107,0 193,87 193,193 0,98 -74,180 -169,191l0 254c42,5 81,21 112,47l320 -321c-62,-88 1,-212 111,-212 119,0 180,145 95,230 -46,47 -120,53 -173,15l-320 321c25,31 42,70 47,112l254 0c11,-95 92,-169 191,-169 106,0 192,86 192,192 0,107 -86,193 -192,193 -99,0 -180,-74 -191,-169l-254 0c-5,42 -22,81 -47,112l320 320c53,-37 127,-31 173,15 85,85 24,231 -95,231 -108,0 -173,-123 -111,-213l-320 -320c-31,25 -70,42 -112,47l0 254c95,11 169,92 169,191 0,106 -86,192 -193,192 -106,0 -192,-86 -192,-192 0,-99 74,-180 169,-191l0 -254zm-637 -362c-81,0 -146,66 -146,146 0,81 65,146 146,146 80,0 146,-65 146,-146 0,-80 -66,-146 -146,-146zm660 661c-80,0 -146,65 -146,146 0,80 66,146 146,146 81,0 146,-66 146,-146 0,-81 -65,-146 -146,-146zm661 -661c-81,0 -146,66 -146,146 0,81 65,146 146,146 80,0 146,-65 146,-146 0,-80 -66,-146 -146,-146zm-146 146l0 0zm-1081 -654c-78,0 -118,95 -62,150 34,35 90,35 124,0l0 0c54,-52 18,-150 -62,-150zm0 1133c-78,0 -118,95 -62,150 34,34 90,34 124,0 56,-55 16,-150 -62,-150zm1133 0c-78,0 -118,95 -63,150 35,34 91,34 125,0 55,-55 16,-150 -62,-150zm0 -1133c-79,0 -118,95 -63,150 35,35 91,35 125,0 55,-55 16,-150 -62,-150zm-567 -152c-80,0 -146,65 -146,146 0,80 66,146 146,146 81,0 146,-66 146,-146 0,-81 -65,-146 -146,-146zm0 636c-93,0 -170,77 -170,170 0,94 77,170 170,170 94,0 170,-76 170,-170 0,-93 -76,-170 -170,-170zm170 170l0 0z"/>
  <path class="fil1" d="M1357 349c35,35 91,35 125,0 55,-55 16,-150 -62,-150 -79,0 -118,95 -63,150z"/>
  <path class="fil2" d="M1660 853c0,-80 -66,-146 -146,-146 -81,0 -146,66 -146,146 0,81 65,146 146,146 80,0 146,-65 146,-146z"/>
  <path class="fil1" d="M1482 1482c55,-55 16,-150 -62,-150 -78,0 -118,95 -63,150 35,34 91,34 125,0z"/>
  <path class="fil2" d="M999 1514c0,-81 -65,-146 -146,-146 -80,0 -146,65 -146,146 0,80 66,146 146,146 81,0 146,-66 146,-146z"/>
  <path class="fil2" d="M853 1023c94,0 170,-76 170,-170 0,-93 -76,-170 -170,-170 -93,0 -170,77 -170,170 0,94 77,170 170,170z"/>
  <path class="fil2" d="M853 339c81,0 146,-66 146,-146 0,-81 -65,-146 -146,-146 -80,0 -146,65 -146,146 0,80 66,146 146,146z"/>
  <path class="fil1" d="M349 349c54,-52 18,-150 -62,-150 -78,0 -118,95 -62,150 34,35 90,35 124,0z"/>
  <path class="fil2" d="M339 853c0,-80 -66,-146 -146,-146 -81,0 -146,66 -146,146 0,81 65,146 146,146 80,0 146,-65 146,-146z"/>
  <path class="fil1" d="M349 1482c56,-55 16,-150 -62,-150 -78,0 -118,95 -62,150 34,34 90,34 124,0z"/>
 </g>
</svg>
