<svg width="42" height="44" viewBox="0 0 42 44" fill="none" xmlns="http://www.w3.org/2000/svg">
<rect width="19.7411" height="6.23404" rx="3.11702" transform="matrix(1 0 0 -1 22.0789 20.5991)" fill="#0068FF"/>
<rect width="12.2083" height="6.23404" rx="3.11702" transform="matrix(1 0 0 -1 22.0789 11.7676)" fill="#0068FF"/>
<rect width="19.7411" height="6.23404" rx="3.11702" transform="matrix(-4.37114e-08 -1 -1 4.37114e-08 19.4814 20.5991)" fill="#0068FF"/>
<rect width="12.2083" height="6.23404" rx="3.11702" transform="matrix(-4.37114e-08 -1 -1 4.37114e-08 10.6498 20.5991)" fill="#0068FF"/>
<rect width="19.7411" height="6.23404" rx="3.11702" transform="matrix(1.31134e-07 1 1 -1.31134e-07 22.5984 23.4563)" fill="#10C800"/>
<rect width="12.2083" height="6.23404" rx="3.11702" transform="matrix(1.31134e-07 1 1 -1.31134e-07 31.4299 23.4563)" fill="#10C800"/>
<rect width="19.7411" height="6.23404" rx="3.11702" transform="matrix(-1 8.74228e-08 8.74228e-08 1 19.7411 23.7161)" fill="#10C800"/>
<rect width="12.2083" height="6.23404" rx="3.11702" transform="matrix(-1 8.74228e-08 8.74228e-08 1 19.7411 32.5479)" fill="#10C800"/>
</svg>
