<svg width="273" height="59" viewBox="0 0 273 59" fill="none" xmlns="http://www.w3.org/2000/svg">
<path d="M15 14H52" stroke="black" stroke-width="6"/>
<ellipse cx="46" cy="13.5" rx="9" ry="6.5" fill="black"/>
<ellipse cx="18" cy="13.5" rx="9" ry="6.5" fill="black"/>
<path d="M15 47H52" stroke="black" stroke-width="6"/>
<ellipse cx="46" cy="46.5" rx="9" ry="6.5" fill="black"/>
<ellipse cx="18" cy="46.5" rx="9" ry="6.5" fill="black"/>
<path d="M29 30H66" stroke="black" stroke-width="6"/>
<ellipse cx="59" cy="29.5" rx="9" ry="6.5" fill="black"/>
<ellipse cx="32" cy="29.5" rx="9" ry="6.5" fill="black"/>
<ellipse cx="9" cy="29.5" rx="9" ry="6.5" fill="black"/>
<path d="M98.3145 37.8447C98.3145 37.1123 98.2005 36.4613 97.9727 35.8916C97.7611 35.3219 97.3786 34.8011 96.8252 34.3291C96.2718 33.8571 95.4906 33.4014 94.4814 32.9619C93.4886 32.5062 92.2191 32.0423 90.6729 31.5703C88.9801 31.0495 87.4176 30.4717 85.9854 29.8369C84.5693 29.1859 83.3324 28.4372 82.2744 27.5908C81.2165 26.7282 80.3945 25.7435 79.8086 24.6367C79.2227 23.5137 78.9297 22.2197 78.9297 20.7549C78.9297 19.3063 79.2308 17.988 79.833 16.7998C80.4515 15.6117 81.3223 14.5863 82.4453 13.7236C83.5846 12.8447 84.9274 12.1693 86.4736 11.6973C88.0199 11.209 89.7288 10.9648 91.6006 10.9648C94.2373 10.9648 96.5078 11.4531 98.4121 12.4297C100.333 13.4062 101.806 14.7165 102.831 16.3604C103.873 18.0042 104.394 19.819 104.394 21.8047H98.3145C98.3145 20.6328 98.0622 19.5993 97.5576 18.7041C97.0693 17.7926 96.3206 17.0765 95.3115 16.5557C94.3187 16.0348 93.0573 15.7744 91.5273 15.7744C90.0788 15.7744 88.8743 15.9941 87.9141 16.4336C86.9538 16.873 86.2376 17.4671 85.7656 18.2158C85.2936 18.9645 85.0576 19.8109 85.0576 20.7549C85.0576 21.4222 85.2122 22.0326 85.5215 22.5859C85.8307 23.123 86.3027 23.6276 86.9375 24.0996C87.5723 24.5553 88.3698 24.9867 89.3301 25.3936C90.2904 25.8005 91.4215 26.1911 92.7236 26.5654C94.693 27.1514 96.4102 27.8024 97.875 28.5186C99.3398 29.2184 100.561 30.016 101.537 30.9111C102.514 31.8063 103.246 32.8236 103.734 33.9629C104.223 35.0859 104.467 36.3636 104.467 37.7959C104.467 39.2933 104.166 40.6442 103.563 41.8486C102.961 43.0368 102.099 44.054 100.976 44.9004C99.8688 45.7305 98.5342 46.3734 96.9717 46.8291C95.4255 47.2686 93.7002 47.4883 91.7959 47.4883C90.0869 47.4883 88.4023 47.2604 86.7422 46.8047C85.0983 46.349 83.6009 45.6572 82.25 44.7295C80.8991 43.7855 79.8249 42.6136 79.0273 41.2139C78.2298 39.7979 77.8311 38.1458 77.8311 36.2578H83.959C83.959 37.4134 84.1543 38.3981 84.5449 39.2119C84.9518 40.0257 85.5133 40.693 86.2295 41.2139C86.9456 41.7184 87.7757 42.0928 88.7197 42.3369C89.68 42.5811 90.7054 42.7031 91.7959 42.7031C93.2282 42.7031 94.4245 42.4997 95.3848 42.0928C96.3613 41.6859 97.0938 41.1162 97.582 40.3838C98.0703 39.6514 98.3145 38.805 98.3145 37.8447ZM125.194 40.7744V20.584H131.103V47H125.536L125.194 40.7744ZM126.024 35.2812L128.002 35.2324C128.002 37.0065 127.807 38.6423 127.416 40.1396C127.025 41.6208 126.423 42.9147 125.609 44.0215C124.796 45.112 123.754 45.9665 122.484 46.585C121.215 47.1872 119.693 47.4883 117.919 47.4883C116.633 47.4883 115.453 47.3011 114.379 46.9268C113.305 46.5524 112.377 45.9746 111.596 45.1934C110.831 44.4121 110.237 43.3949 109.813 42.1416C109.39 40.8883 109.179 39.391 109.179 37.6494V20.584H115.062V37.6982C115.062 38.6585 115.176 39.4642 115.404 40.1152C115.632 40.75 115.941 41.2627 116.332 41.6533C116.723 42.0439 117.178 42.3206 117.699 42.4834C118.22 42.6462 118.773 42.7275 119.359 42.7275C121.036 42.7275 122.354 42.402 123.314 41.751C124.291 41.0837 124.983 40.1885 125.39 39.0654C125.813 37.9424 126.024 36.681 126.024 35.2812ZM143.432 20.584V47H137.523V20.584H143.432ZM137.133 13.6504C137.133 12.7552 137.426 12.0146 138.012 11.4287C138.614 10.8265 139.444 10.5254 140.502 10.5254C141.544 10.5254 142.366 10.8265 142.968 11.4287C143.57 12.0146 143.871 12.7552 143.871 13.6504C143.871 14.5293 143.57 15.2617 142.968 15.8477C142.366 16.4336 141.544 16.7266 140.502 16.7266C139.444 16.7266 138.614 16.4336 138.012 15.8477C137.426 15.2617 137.133 14.5293 137.133 13.6504ZM164.696 39.8467C164.696 39.2607 164.55 38.7318 164.257 38.2598C163.964 37.7715 163.402 37.332 162.572 36.9414C161.758 36.5508 160.554 36.1927 158.959 35.8672C157.559 35.5579 156.273 35.1917 155.102 34.7686C153.946 34.3291 152.953 33.8001 152.123 33.1816C151.293 32.5632 150.65 31.8307 150.194 30.9844C149.739 30.138 149.511 29.1615 149.511 28.0547C149.511 26.9805 149.747 25.9632 150.219 25.0029C150.691 24.0426 151.366 23.1963 152.245 22.4639C153.124 21.7314 154.19 21.1536 155.443 20.7305C156.713 20.3073 158.129 20.0957 159.691 20.0957C161.905 20.0957 163.801 20.4701 165.38 21.2188C166.975 21.9512 168.196 22.9521 169.042 24.2217C169.888 25.4749 170.312 26.891 170.312 28.4697H164.428C164.428 27.7699 164.249 27.1188 163.891 26.5166C163.549 25.8981 163.028 25.4017 162.328 25.0273C161.628 24.6367 160.749 24.4414 159.691 24.4414C158.682 24.4414 157.844 24.6042 157.177 24.9297C156.526 25.2389 156.037 25.6458 155.712 26.1504C155.403 26.6549 155.248 27.2083 155.248 27.8105C155.248 28.25 155.329 28.6488 155.492 29.0068C155.671 29.3486 155.964 29.666 156.371 29.959C156.778 30.2357 157.331 30.4961 158.031 30.7402C158.747 30.9844 159.643 31.2204 160.717 31.4482C162.735 31.8714 164.468 32.4167 165.917 33.084C167.382 33.735 168.505 34.5814 169.286 35.623C170.067 36.6484 170.458 37.9505 170.458 39.5293C170.458 40.7012 170.206 41.7754 169.701 42.752C169.213 43.7122 168.497 44.5505 167.553 45.2666C166.609 45.9665 165.478 46.5117 164.159 46.9023C162.857 47.293 161.392 47.4883 159.765 47.4883C157.372 47.4883 155.346 47.0651 153.686 46.2188C152.025 45.3561 150.764 44.2575 149.901 42.9229C149.055 41.5719 148.632 40.1722 148.632 38.7236H154.32C154.385 39.8141 154.687 40.6849 155.224 41.3359C155.777 41.9707 156.461 42.4346 157.274 42.7275C158.104 43.0042 158.959 43.1426 159.838 43.1426C160.896 43.1426 161.783 43.0042 162.499 42.7275C163.215 42.4346 163.76 42.0439 164.135 41.5557C164.509 41.0511 164.696 40.4814 164.696 39.8467ZM190.429 39.8467C190.429 39.2607 190.282 38.7318 189.989 38.2598C189.696 37.7715 189.135 37.332 188.305 36.9414C187.491 36.5508 186.286 36.1927 184.691 35.8672C183.292 35.5579 182.006 35.1917 180.834 34.7686C179.678 34.3291 178.686 33.8001 177.855 33.1816C177.025 32.5632 176.382 31.8307 175.927 30.9844C175.471 30.138 175.243 29.1615 175.243 28.0547C175.243 26.9805 175.479 25.9632 175.951 25.0029C176.423 24.0426 177.099 23.1963 177.978 22.4639C178.856 21.7314 179.923 21.1536 181.176 20.7305C182.445 20.3073 183.861 20.0957 185.424 20.0957C187.637 20.0957 189.534 20.4701 191.112 21.2188C192.707 21.9512 193.928 22.9521 194.774 24.2217C195.621 25.4749 196.044 26.891 196.044 28.4697H190.16C190.16 27.7699 189.981 27.1188 189.623 26.5166C189.281 25.8981 188.76 25.4017 188.061 25.0273C187.361 24.6367 186.482 24.4414 185.424 24.4414C184.415 24.4414 183.576 24.6042 182.909 24.9297C182.258 25.2389 181.77 25.6458 181.444 26.1504C181.135 26.6549 180.98 27.2083 180.98 27.8105C180.98 28.25 181.062 28.6488 181.225 29.0068C181.404 29.3486 181.697 29.666 182.104 29.959C182.51 30.2357 183.064 30.4961 183.764 30.7402C184.48 30.9844 185.375 31.2204 186.449 31.4482C188.467 31.8714 190.201 32.4167 191.649 33.084C193.114 33.735 194.237 34.5814 195.019 35.623C195.8 36.6484 196.19 37.9505 196.19 39.5293C196.19 40.7012 195.938 41.7754 195.434 42.752C194.945 43.7122 194.229 44.5505 193.285 45.2666C192.341 45.9665 191.21 46.5117 189.892 46.9023C188.59 47.293 187.125 47.4883 185.497 47.4883C183.104 47.4883 181.078 47.0651 179.418 46.2188C177.758 45.3561 176.496 44.2575 175.634 42.9229C174.787 41.5719 174.364 40.1722 174.364 38.7236H180.053C180.118 39.8141 180.419 40.6849 180.956 41.3359C181.509 41.9707 182.193 42.4346 183.007 42.7275C183.837 43.0042 184.691 43.1426 185.57 43.1426C186.628 43.1426 187.515 43.0042 188.231 42.7275C188.948 42.4346 189.493 42.0439 189.867 41.5557C190.242 41.0511 190.429 40.4814 190.429 39.8467ZM212.987 47.4883C211.034 47.4883 209.268 47.1709 207.689 46.5361C206.127 45.8851 204.792 44.9818 203.686 43.8262C202.595 42.6706 201.757 41.3115 201.171 39.749C200.585 38.1865 200.292 36.502 200.292 34.6953V33.7188C200.292 31.6517 200.593 29.7799 201.195 28.1035C201.798 26.4271 202.636 24.9948 203.71 23.8066C204.784 22.6022 206.054 21.6826 207.519 21.0479C208.983 20.4131 210.57 20.0957 212.279 20.0957C214.167 20.0957 215.819 20.4131 217.235 21.0479C218.651 21.6826 219.823 22.5778 220.751 23.7334C221.695 24.8727 222.395 26.2318 222.851 27.8105C223.323 29.3893 223.559 31.1309 223.559 33.0352V35.5498H203.148V31.3262H217.748V30.8623C217.715 29.8044 217.504 28.8115 217.113 27.8838C216.739 26.9561 216.161 26.2074 215.38 25.6377C214.599 25.068 213.557 24.7832 212.255 24.7832C211.278 24.7832 210.408 24.9948 209.643 25.418C208.894 25.8249 208.267 26.4189 207.763 27.2002C207.258 27.9814 206.868 28.9255 206.591 30.0322C206.33 31.1227 206.2 32.3516 206.2 33.7188V34.6953C206.2 35.8509 206.355 36.9251 206.664 37.918C206.99 38.8945 207.462 39.749 208.08 40.4814C208.699 41.2139 209.447 41.7917 210.326 42.2148C211.205 42.6217 212.206 42.8252 213.329 42.8252C214.745 42.8252 216.007 42.5404 217.113 41.9707C218.22 41.401 219.18 40.5954 219.994 39.5537L223.095 42.5566C222.525 43.3867 221.785 44.1842 220.873 44.9492C219.962 45.6979 218.847 46.3083 217.528 46.7803C216.226 47.2523 214.713 47.4883 212.987 47.4883ZM242.577 16.1895L231.957 47H225.536L238.915 11.4531H243.017L242.577 16.1895ZM251.464 47L240.819 16.1895L240.355 11.4531H244.481L257.909 47H251.464ZM250.951 33.8164V38.6748H231.615V33.8164H250.951ZM268.432 11.4531V47H262.304V11.4531H268.432Z" fill="black"/>
</svg>
